<svg
	id="Layer_1"
	data-name="Layer 1"
	xmlns="http://www.w3.org/2000/svg"
	viewBox="0 0 118 20"

	>
	<defs>
		<style>
			.cls-1{fill:#fff;}
			.cls-2{fill:#f9c119;}
			.cls-3{fill:#f18921;}
			.cls-4{fill:#e84624;}
			.cls-5{fill:#a42823;}
		</style>
	</defs>
	<path class="cls-1" d="M403,278.58a7.55,7.55,0,0,1-2.42,5.67,8.37,8.37,0,0,1-11.55,0,7.78,7.78,0,0,1-2.41-5.88A7.54,7.54,0,0,1,389,272.7a8.07,8.07,0,0,1,5.78-2.31,8.26,8.26,0,0,1,8.19,8.19Zm-2.73.21q0-5.88-5.46-5.88t-5.46,5.67q0,5.67,5.46,5.67T400.26,278.79Zm-4.2,120.1q0,1.47-1.26,1.47t-1.26-1.47V297.69q0-1.68,1.26-1.68t1.26,1.68Z"/>
	<path class="cls-1" d="M525.18,348.08q0,22.88-15.75,38.84t-38.63,16q-22.89,0-38.84-16a54.63,54.63,0,0,1,77.16-77.37A52.1,52.1,0,0,1,525.18,348.08Zm-2.52,0a49.77,49.77,0,0,0-15.33-36.64,50.28,50.28,0,0,0-36.74-15.22q-21.84,0-36.95,15.11t-15.12,37q0,21.4,15.33,36.74a51.94,51.94,0,0,0,73.59.1Q522.67,369.92,522.66,348.08Z"/>
	<path class="cls-1" d="M600.13,297.48q0,1.26-1.47,1.26H556.25V398.89q0,1.47-1.26,1.47a1.3,1.3,0,0,1-1.47-1.47V298.74H539c-1.13,0-1.68-.42-1.68-1.26S537.91,296,539,296h14.48V279a1.3,1.3,0,0,1,1.47-1.47q1.26,0,1.26,1.47v17h42.41A1.3,1.3,0,0,1,600.13,297.48Z"/>
	<path class="cls-1" d="M729.25,399.52c0,.56-.35.84-1,.84q-1.26,0-1.89-1.89-8.4-23.94-24.78-36.12-18.27-13.64-43.88-14.9v51.44q0,1.47-1.26,1.47t-1.26-1.47V262c0-1.11.42-1.68,1.26-1.68s1.26.57,1.26,1.68v83.36q16.8-.84,29.6-7.56,22.89-11.76,34-39.89c.42-1.26,1-1.89,1.68-1.89a.93.93,0,0,1,1,1.05c0,1.26-1.13,4.27-3.36,9q-15.75,33.81-51.86,40.11a77.27,77.27,0,0,1,35.38,15.22A72.37,72.37,0,0,1,727,392Q729.25,397.63,729.25,399.52Z"/>
	<path class="cls-1" d="M844.94,348.08q0,22.88-15.74,38.84t-38.64,16q-22.87,0-38.84-16a54.63,54.63,0,0,1,77.16-77.37A52.1,52.1,0,0,1,844.94,348.08Zm-2.52,0a52.14,52.14,0,0,0-52.07-51.86q-21.84,0-37,15.11t-15.12,37q0,21.4,15.33,36.74t36.74,15.33a50.19,50.19,0,0,0,36.85-15.23Q842.43,369.92,842.42,348.08Z"/>
	<path class="cls-1" d="M900.79,297.48q0,1-2.1,1.47a43.52,43.52,0,0,0-20,10.49,45.89,45.89,0,0,0-12.59,19.95q-2.52,8.4-2.52,24.15v45.35q0,1.47-1.26,1.47t-1.26-1.47V297.69q0-1.68,1.26-1.68t1.26,1.68q0,30.85-.42,35.48,4.6-23.31,25.82-33.59,6.93-3.36,10.71-3.36Q900.79,296.22,900.79,297.48Z"/>
	<path class="cls-1" d="M1018.36,348.29a54.66,54.66,0,0,1-54.79,54.59q-19.74,0-35.49-13.44v45.35a1.3,1.3,0,0,1-1.47,1.47q-1.26,0-1.26-1.47V387.13a53.2,53.2,0,0,1-16.16-39.05q0-22.68,15.95-38.53a54.64,54.64,0,0,1,93.22,38.74Zm-2.52,0q0-21.84-15.11-37t-37-15.11a52,52,0,0,0-52.07,51.86,50.75,50.75,0,0,0,13.65,35.48V348.92q0-1.68,1.26-1.68,1.47,0,1.47,1.68v37.16q15.54,14.28,35.69,14.28A50.13,50.13,0,0,0,1000.52,385Q1015.84,369.7,1015.84,348.29Z"/>
	<polygon class="cls-2" points="248.56 199.4 170.57 154.37 170.57 244.43 248.56 199.4"/>
	<polygon class="cls-2" points="326.56 334.49 326.56 244.43 248.56 289.46 326.56 334.49"/>
	<polygon class="cls-3" points="170.57 154.37 92.58 199.4 170.57 244.43 170.57 154.37"/>
	<polygon class="cls-4" points="14.58 244.43 14.58 334.49 92.58 289.46 14.58 244.43"/>
	<polygon class="cls-5" points="92.58 199.4 14.58 244.43 92.58 289.46 170.57 244.43 92.58 199.4"/>
	<polygon class="cls-2" points="170.57 424.55 92.65 379.37 92.58 469.58 170.57 424.55"/>
	<polygon class="cls-2" points="14.58 334.49 14.58 424.55 92.58 379.52 14.58 334.49"/>
	<polygon class="cls-3" points="92.58 289.46 14.58 334.49 92.58 379.52 92.58 289.46"/>
	<polygon class="cls-5" points="92.58 379.52 14.58 424.55 92.58 469.58 92.58 379.52"/>
	<polygon class="cls-5" points="170.57 424.55 92.58 469.58 170.57 514.61 170.57 424.55"/>
	<polygon class="cls-3" points="326.56 334.49 248.56 289.46 248.56 379.52 326.56 334.49"/>
	<polygon class="cls-4" points="326.56 424.55 326.56 334.49 248.56 379.52 326.56 424.55"/>
	<polygon class="cls-5" points="248.56 469.58 326.56 424.55 248.56 379.52 248.56 469.58"/>
	<polygon class="cls-3" points="248.56 199.4 248.56 199.4 170.57 244.43 248.56 289.46 326.56 244.43 248.56 199.4"/>
	<polygon class="cls-4" points="170.57 424.55 170.57 514.61 248.56 469.58 248.56 379.52 170.57 424.55"/>
	<polygon class="cls-2" points="248.56 289.46 170.57 244.43 170.33 334.49 170.33 334.49 248.56 379.52 248.56 289.46 248.56 289.46"/>
	<polygon class="cls-4" points="92.58 289.46 92.58 379.51 170.57 334.49 170.57 244.43 92.58 289.46"/>
	<polygon class="cls-3" points="248.49 379.66 170.64 334.34 170.64 334.34 92.65 379.37 170.5 424.69 170.5 424.69 248.49 379.66"/>
	<polygon class="cls-5" points="169.88 280.67 169.88 280.67 123.04 307.72 169.88 334.76 216.73 307.72 169.88 280.67"/>
	<polygon class="cls-2" points="169.88 334.76 123.04 307.72 123.04 361.73 122.89 361.81 169.74 388.86 169.88 334.76 169.88 334.76"/>
	<polygon class="cls-4" points="169.88 334.76 169.88 388.86 216.73 361.81 216.73 307.72 169.88 334.76"/>
</svg>
